<?xml version="1.0" encoding="UTF-8" standalone="no"?>
<!DOCTYPE svg PUBLIC "-//W3C//DTD SVG 1.1//EN" "http://www.w3.org/Graphics/SVG/1.1/DTD/svg11.dtd">
<svg width="612pt" height="792pt" viewBox="0 0 612 792" overflow="visible" version="1.1" xmlns="http://www.w3.org/2000/svg">
  <path d="M399.6512,280.536 C399.8465,282.3492 397.9606,284.6229 394.4097,286.2868 C390.8587,287.9507 385.6427,289.0047 381.275,289.1467 C376.9115,289.3853 371.6236,288.789 367.9413,287.4403 C364.2591,286.0917 362.1825,283.9907 362.2193,282.1674 C362.024,280.3542 363.9099,278.0805 367.4609,276.4167 C371.0118,274.7528 376.2278,273.6987 380.5956,273.5568 C384.9591,273.3182 390.247,273.9145 393.9292,275.2631 C397.6115,276.6118 399.688,278.7128 399.6512,280.536 C399.8465,282.3492 397.9606,284.6229 394.4097,286.2868 C390.8587,287.9507 385.6427,289.0047 381.275,289.1467 C376.9115,289.3853 371.6236,288.789 367.9413,287.4403 C364.2591,286.0917 362.1825,283.9907 362.2193,282.1674 C362.024,280.3542 363.9099,278.0805 367.4609,276.4167 C371.0118,274.7528 376.2278,273.6987 380.5956,273.5568 C384.9591,273.3182 390.247,273.9145 393.9292,275.2631 C397.6115,276.6118 399.688,278.7128 399.6512,280.536 z" stroke="#7FFF00" stroke-width="0.24" fill-opacity="0" />
  <path d="M399.669,281.3517 C399.7852,276.982 397.8021,271.725 394.182,268.105 C390.562,264.485 385.3051,262.5018 380.9353,262.618 C376.5655,262.5018 371.3086,264.485 367.6885,268.105 C364.0685,271.725 362.0854,276.982 362.2015,281.3517 C362.0854,285.7215 364.0685,290.9784 367.6885,294.5985 C371.3086,298.2185 376.5655,300.2016 380.9353,300.0854 C385.3051,300.2016 390.562,298.2185 394.182,294.5985 C397.8021,290.9784 399.7852,285.7215 399.669,281.3517 C399.7852,276.982 397.8021,271.725 394.182,268.105 C390.562,264.485 385.3051,262.5018 380.9353,262.618 C376.5655,262.5018 371.3086,264.485 367.6885,268.105 C364.0685,271.725 362.0854,276.982 362.2015,281.3517 C362.0854,285.7215 364.0685,290.9784 367.6885,294.5985 C371.3086,298.2185 376.5655,300.2016 380.9353,300.0854 C385.3051,300.2016 390.562,298.2185 394.182,294.5985 C397.8021,290.9784 399.7852,285.7215 399.669,281.3517 z" stroke="#FFFFFF" stroke-width="0.24" fill-opacity="0" />
</svg>