<?xml version="1.0" encoding="UTF-8" standalone="no"?>
<!DOCTYPE svg PUBLIC "-//W3C//DTD SVG 1.1//EN" "http://www.w3.org/Graphics/SVG/1.1/DTD/svg11.dtd">
<svg width="612pt" height="792pt" viewBox="0 0 612 792" overflow="visible" version="1.1" xmlns="http://www.w3.org/2000/svg">
  <path d="M361.6978,478.328 C361.5334,481.1285 364.3395,484.4976 369.4619,486.8176 C374.5842,489.1376 382.0228,490.4085 388.206,490.3341 C394.3892,490.4085 401.8277,489.1376 406.95,486.8176 C412.0724,484.4976 414.8785,481.1285 414.7141,478.328 C414.8785,475.5275 412.0724,472.1584 406.95,469.8384 C401.8277,467.5184 394.3892,466.2474 388.206,466.3219 C382.0228,466.2474 374.5842,467.5184 369.4619,469.8384 C364.3395,472.1584 361.5334,475.5275 361.6978,478.328 C361.5334,481.1285 364.3395,484.4976 369.4619,486.8176 C374.5842,489.1376 382.0228,490.4085 388.206,490.3341 C394.3892,490.4085 401.8277,489.1376 406.95,486.8176 C412.0724,484.4976 414.8785,481.1285 414.7141,478.328 C414.8785,475.5275 412.0724,472.1584 406.95,469.8384 C401.8277,467.5184 394.3892,466.2474 388.206,466.3219 C382.0228,466.2474 374.5842,467.5184 369.4619,469.8384 C364.3395,472.1584 361.5334,475.5275 361.6978,478.328 z" stroke="#FF00FF" stroke-width="0.24" fill-opacity="0" />
  <path d="M412.9726,393.4565 C413.152,395.201 410.0892,397.2998 404.4984,398.745 C398.9075,400.1902 390.7885,400.9819 384.0397,400.9356 C377.2909,400.9819 369.1719,400.1902 363.581,398.745 C357.9901,397.2998 354.9273,395.201 355.1068,393.4565 C354.9273,391.7119 357.9901,389.6132 363.581,388.168 C369.1719,386.7227 377.2909,385.931 384.0397,385.9774 C390.7885,385.931 398.9075,386.7227 404.4984,388.168 C410.0892,389.6132 413.152,391.7119 412.9726,393.4565 C413.152,395.201 410.0892,397.2998 404.4984,398.745 C398.9075,400.1902 390.7885,400.9819 384.0397,400.9356 C377.2909,400.9819 369.1719,400.1902 363.581,398.745 C357.9901,397.2998 354.9273,395.201 355.1068,393.4565 C354.9273,391.7119 357.9901,389.6132 363.581,388.168 C369.1719,386.7227 377.2909,385.931 384.0397,385.9774 C390.7885,385.931 398.9075,386.7227 404.4984,388.168 C410.0892,389.6132 413.152,391.7119 412.9726,393.4565 z" stroke="#00FFFF" stroke-width="0.24" fill-opacity="0" />
  <path d="M369.7747,352.2233 C369.6711,357.095 368.4547,358.8024 367.6711,360.0398" stroke="#FFFFFF" stroke-width="0.24" fill-opacity="0" />
  <path d="M364.1833,504.7583 C366.7101,514.6577 371.6259,520.2853 377.0127,522.4261 C382.9069,524.7687 389.3651,522.9366 393.3794,520.9249 C397.3938,518.9132 398.9644,516.722 401.9182,507.4984" stroke="#FFFFFF" stroke-width="0.24" fill-opacity="0" />
  <path d="M359.1327,353.7289 C362.3707,351.5427 363.8246,350.9343 364.9023,350.7745 C365.9799,350.6147 366.6811,350.9034 367.3875,351.3004 C368.0938,351.6974 368.8054,352.2027 369.7747,352.2233" stroke="#FFFFFF" stroke-width="0.24" fill-opacity="0" />
  <path d="M387.3267,359.6588 C387.1763,357.8379 387.8529,357.0862 388.6756,356.6657 C389.4984,356.2453 390.4673,356.1562 391.2942,356.3205 C392.1212,356.4848 392.8061,356.9024 393.0566,357.6207 C393.3072,358.3391 393.1235,359.3581 392.7894,359.7256" stroke="#FFFFFF" stroke-width="0.24" fill-opacity="0" />
  <path d="M398.9947,369.9052 L396.3552,370.3061" stroke="#FFFFFF" stroke-width="0.24" fill-opacity="0" />
  <path d="M408.8724,380.3442 C408.697,380.5853 408.3025,380.6675 407.9042,380.6848 L406.8045,380.5031 L406.2008,379.8719 L406.0884,379.3248" stroke="#FFFFFF" stroke-width="0.24" fill-opacity="0" />
  <path d="M398.9947,369.9052 L396.3552,370.3061" stroke="#FFFFFF" stroke-width="0.24" fill-opacity="0" />
  <path d="M384.5126,376.4148 C384.2021,367.5278 384.3767,363.3365 384.8833,360.8911 C385.3899,358.4457 386.2285,357.7462 386.5907,356.7113 C386.9529,355.6764 386.8387,354.3062 386.3419,353.0196 C385.845,351.733 384.9653,350.53 383.4906,349.618 C382.0159,348.706 379.9462,348.0851 378.5232,348.3438 C377.1003,348.6025 376.3241,349.7409 375.8972,351.235 C375.4703,352.7291 375.3927,354.5789 375.3216,356.1506 L375.134,360.5876 L374.8882,365.9108 C374.733,367.8124 374.4613,369.7657 374.5002,372.1006 C374.539,374.4355 374.8882,377.1521 374.539,378.1223" stroke="#FFFFFF" stroke-width="0.24" fill-opacity="0" />
  <path d="M374.5563,373.6016 C372.8372,374.1058 371.9777,374.5261 371.9777,374.8625" stroke="#FFFFFF" stroke-width="0.24" fill-opacity="0" />
  <path d="M359.1327,353.7289 C362.3707,351.5427 363.8246,350.9343 364.9023,350.7745 C365.9799,350.6147 366.6811,350.9034 367.3875,351.3004 C368.0938,351.6974 368.8054,352.2027 369.7747,352.2233" stroke="#FFFFFF" stroke-width="0.24" fill-opacity="0" />
  <path d="M388.2288,359.8593 C390.0497,359.9762 392.1378,359.8091 392.6056,359.4082" stroke="#FFFFFF" stroke-width="0.24" fill-opacity="0" />
  <path d="M387.3267,359.6588 C387.1763,357.8379 387.8529,357.0862 388.6756,356.6657 C389.4984,356.2453 390.4673,356.1562 391.2942,356.3205 C392.1212,356.4848 392.8061,356.9024 393.0566,357.6207 C393.3072,358.3391 393.1235,359.3581 392.7894,359.7256" stroke="#FFFFFF" stroke-width="0.24" fill-opacity="0" />
  <path d="M369.7747,352.2233 C369.6711,357.095 368.4547,358.8024 367.6711,360.0398" stroke="#FFFFFF" stroke-width="0.24" fill-opacity="0" />
  <path d="M364.1833,504.7583 C366.7101,514.6577 371.6259,520.2853 377.0127,522.4261 C382.9069,524.7687 389.3651,522.9366 393.3794,520.9249 C397.3938,518.9132 398.9644,516.722 401.9182,507.4984" stroke="#FFFFFF" stroke-width="0.24" fill-opacity="0" />
  <path d="M372.3269,377.1521 C371.9777,374.8625 371.9777,374.3579 372.1199,373.6012 L372.8961,370.71 L374.013,367.3745 L374.8319,364.7826 C375.0038,363.8535 375.0542,362.69 374.8816,361.1745 C374.7091,359.6591 374.3136,357.7917 373.5919,355.7713 C372.8702,353.751 371.8224,351.5778 370.9751,350.2066 C370.1278,348.8354 369.481,348.2662 368.485,347.9622 C367.4889,347.6582 366.1436,347.6194 364.8176,347.8846 C363.4917,348.1498 362.1852,348.7189 360.4841,349.9155 C358.783,351.1121 356.6874,352.9361 355.6008,355.9437 C354.5142,358.9513 354.4365,363.1425 354.6176,366.577 C354.7987,370.0115 355.2386,372.6892 355.5598,374.6452 C355.8811,376.6011 356.0838,377.8353 356.0838,379.6935 C356.0838,381.5518 355.8811,384.0341 355.5872,386.7111 C355.2934,389.3882 354.9084,392.2599 355.226,396.6816 C355.5437,401.1033 356.564,407.0749 358.2011,414.7486 C359.8382,422.4223 362.092,431.7982 363.2189,440.6932 C364.3458,449.5883 364.3458,458.0026 363.9402,464.2531 C363.5345,470.5037 362.7231,474.5906 361.8516,477.776 C360.9801,480.9614 360.0486,483.2453 360.319,487.1068 C360.5895,490.9684 362.062,496.4076 363.1739,501.0805 L364.1833,504.7583" stroke="#FFFFFF" stroke-width="0.24" fill-opacity="0" />
  <path d="M401.9182,507.4984 C402.3322,501.406 403.5743,499.1879 404.8362,497.1818 L408.6414,491.6661 C409.9033,489.9508 411.1454,488.3143 412.3087,486.3033 C413.472,484.2922 414.5564,481.9065 414.7141,478.328 C414.8718,474.7495 414.1029,469.9781 413.61,466.3306 C413.1171,462.683 412.9002,460.1593 412.7326,457.7047 L412.1262,449.8874 L410.9312,439.3796 C410.5796,435.4168 410.3993,431.0594 410.9552,426.4467 C411.5112,421.8338 412.8034,416.9656 413.3293,411.5264 C413.8552,406.0872 413.6147,400.077 413.1859,395.4946 C412.7571,390.9123 412.14,387.7577 411.4756,385.3202 C410.8113,382.8827 410.0998,381.1622 409.563,379.8557 C409.0261,378.5492 408.6639,377.6566 407.8134,377.2006 C406.9629,376.7446 405.624,376.7252 404.4597,377.6178" stroke="#FFFFFF" stroke-width="0.24" fill-opacity="0" />
  <path d="M395.8708,370.4899 C395.4197,369.6045 395.4949,369.1033 396.0699,368.6523 C396.6448,368.2012 397.7195,367.8003 398.5381,367.6527 C399.3567,367.5052 399.9191,367.611 400.2212,367.9395 C400.5233,368.268 400.565,368.8193 399.8801,369.8718" stroke="#FFFFFF" stroke-width="0.24" fill-opacity="0" />
  <path d="M378.9999,353.7808 C381.395,354.1732 381.6927,353.9431 382.6128,353.6184" stroke="#FFFFFF" stroke-width="0.24" fill-opacity="0" />
  <path d="M367.6711,360.0398 C364.5774,360.6585 362.68,360.7926 361.5079,360.8253 C360.3358,360.8579 359.8889,360.7892 359.6139,360.5348 C359.3389,360.2805 359.2358,359.8405 359.1945,359.3008 L359.2152,357.235 C359.2564,356.3481 359.3183,355.2138 359.1327,353.7289" stroke="#FFFFFF" stroke-width="0.24" fill-opacity="0" />
  <path d="M378.0662,353.3884 C377.7144,351.8322 378.824,351.1151 379.9223,350.8196 C381.0206,350.5242 382.1076,350.6505 382.9172,350.9933 C383.7269,351.3361 384.2591,351.8954 384.2512,352.4085 C384.2433,352.9215 383.6953,353.3884 383.3841,353.8214" stroke="#FFFFFF" stroke-width="0.24" fill-opacity="0" />
  <path d="M395.8708,370.4899 C395.4197,369.6045 395.4949,369.1033 396.0699,368.6523 C396.6448,368.2012 397.7195,367.8003 398.5381,367.6527 C399.3567,367.5052 399.9191,367.611 400.2212,367.9395 C400.5233,368.268 400.565,368.8193 399.8801,369.8718" stroke="#FFFFFF" stroke-width="0.24" fill-opacity="0" />
  <path d="M388.2288,359.8593 C390.0497,359.9762 392.1378,359.8091 392.6056,359.4082" stroke="#FFFFFF" stroke-width="0.24" fill-opacity="0" />
  <path d="M406.1428,378.7978 C407.7384,379.7484 408.8784,380.101 409.563,379.8557" stroke="#FFFFFF" stroke-width="0.24" fill-opacity="0" />
  <path d="M405.9344,395.5858 C402.8298,392.2483 402.7134,390.9095 402.7457,389.645 L403.1209,385.9485 L403.5995,382.32 L404.1299,379.584 L404.4145,377.3138 C404.4597,376.4018 404.4597,375.1859 404.1558,373.8987 C403.8518,372.6116 403.2438,371.2533 402.7199,370.2249 C402.196,369.1965 401.7561,368.498 401.1934,367.8965 C400.6307,367.2949 399.9451,366.7904 398.6847,366.4785 C397.4242,366.1665 395.5889,366.0471 394.2145,367.4113" stroke="#FFFFFF" stroke-width="0.24" fill-opacity="0" />
  <path d="M378.9999,353.7808 C381.395,354.1732 381.6927,353.9431 382.6128,353.6184" stroke="#FFFFFF" stroke-width="0.24" fill-opacity="0" />
  <path d="M394.719,382.8181 C393.2831,379.4806 393.4966,377.6566 393.6809,376.2854 L394.0722,373.2196 L394.0528,371.0464 L394.0787,368.7632 L394.261,367.0863 L394.6784,364.1512 C394.853,362.9159 395.0577,361.4575 395.0177,360.1203 C394.9777,358.7831 394.6931,357.5671 393.8458,356.7198 C392.9985,355.8725 391.5885,355.3939 390.4178,355.3421 C389.2471,355.2904 388.3157,355.6655 387.4878,356.5452 C386.6599,357.4248 385.9355,358.809 385.5151,360.2643 C385.0947,361.7195 384.9782,363.246 384.9782,364.7595 L385.0656,369.4552 L384.5126,376.4148" stroke="#FFFFFF" stroke-width="0.24" fill-opacity="0" />
  <path d="M394.719,382.8181 C393.2831,379.4806 393.4966,377.6566 393.6809,376.2854 L394.0722,373.2196 L394.0528,371.0464 L394.0787,368.7632 L394.261,367.0863 L394.6784,364.1512 C394.853,362.9159 395.0577,361.4575 395.0177,360.1203 C394.9777,358.7831 394.6931,357.5671 393.8458,356.7198 C392.9985,355.8725 391.5885,355.3939 390.4178,355.3421 C389.2471,355.2904 388.3157,355.6655 387.4878,356.5452 C386.6599,357.4248 385.9355,358.809 385.5151,360.2643 C385.0947,361.7195 384.9782,363.246 384.9782,364.7595 L385.0656,369.4552 L384.5126,376.4148" stroke="#FFFFFF" stroke-width="0.24" fill-opacity="0" />
  <path d="M408.8724,380.3442 C408.697,380.5853 408.3025,380.6675 407.9042,380.6848 L406.8045,380.5031 L406.2008,379.8719 L406.0884,379.3248" stroke="#FFFFFF" stroke-width="0.24" fill-opacity="0" />
  <path d="M406.1428,378.7978 C407.7384,379.7484 408.8784,380.101 409.563,379.8557" stroke="#FFFFFF" stroke-width="0.24" fill-opacity="0" />
  <path d="M378.0662,353.3884 C377.7144,351.8322 378.824,351.1151 379.9223,350.8196 C381.0206,350.5242 382.1076,350.6505 382.9172,350.9933 C383.7269,351.3361 384.2591,351.8954 384.2512,352.4085 C384.2433,352.9215 383.6953,353.3884 383.3841,353.8214" stroke="#FFFFFF" stroke-width="0.24" fill-opacity="0" />
  <path d="M367.6711,360.0398 C364.5774,360.6585 362.68,360.7926 361.5079,360.8253 C360.3358,360.8579 359.8889,360.7892 359.6139,360.5348 C359.3389,360.2805 359.2358,359.8405 359.1945,359.3008 L359.2152,357.235 C359.2564,356.3481 359.3183,355.2138 359.1327,353.7289" stroke="#FFFFFF" stroke-width="0.24" fill-opacity="0" />
  <path d="M372.3269,377.1521 C371.9777,374.8625 371.9777,374.3579 372.1199,373.6012 L372.8961,370.71 L374.013,367.3745 L374.8319,364.7826 C375.0038,363.8535 375.0542,362.69 374.8816,361.1745 C374.7091,359.6591 374.3136,357.7917 373.5919,355.7713 C372.8702,353.751 371.8224,351.5778 370.9751,350.2066 C370.1278,348.8354 369.481,348.2662 368.485,347.9622 C367.4889,347.6582 366.1436,347.6194 364.8176,347.8846 C363.4917,348.1498 362.1852,348.7189 360.4841,349.9155 C358.783,351.1121 356.6874,352.9361 355.6008,355.9437 C354.5142,358.9513 354.4365,363.1425 354.6176,366.577 C354.7987,370.0115 355.2386,372.6892 355.5598,374.6452 C355.8811,376.6011 356.0838,377.8353 356.0838,379.6935 C356.0838,381.5518 355.8811,384.0341 355.5872,386.7111 C355.2934,389.3882 354.9084,392.2599 355.226,396.6816 C355.5437,401.1033 356.564,407.0749 358.2011,414.7486 C359.8382,422.4223 362.092,431.7982 363.2189,440.6932 C364.3458,449.5883 364.3458,458.0026 363.9402,464.2531 C363.5345,470.5037 362.7231,474.5906 361.8516,477.776 C360.9801,480.9614 360.0486,483.2453 360.319,487.1068 C360.5895,490.9684 362.062,496.4076 363.1739,501.0805 L364.1833,504.7583" stroke="#FFFFFF" stroke-width="0.24" fill-opacity="0" />
  <path d="M374.5563,373.6016 C372.8372,374.1058 371.9777,374.5261 371.9777,374.8625" stroke="#FFFFFF" stroke-width="0.24" fill-opacity="0" />
  <path d="M401.9182,507.4984 C402.3322,501.406 403.5743,499.1879 404.8362,497.1818 L408.6414,491.6661 C409.9033,489.9508 411.1454,488.3143 412.3087,486.3033 C413.472,484.2922 414.5564,481.9065 414.7141,478.328 C414.8718,474.7495 414.1029,469.9781 413.61,466.3306 C413.1171,462.683 412.9002,460.1593 412.7326,457.7047 L412.1262,449.8874 L410.9312,439.3796 C410.5796,435.4168 410.3993,431.0594 410.9552,426.4467 C411.5112,421.8338 412.8034,416.9656 413.3293,411.5264 C413.8552,406.0872 413.6147,400.077 413.1859,395.4946 C412.7571,390.9123 412.14,387.7577 411.4756,385.3202 C410.8113,382.8827 410.0998,381.1622 409.563,379.8557 C409.0261,378.5492 408.6639,377.6566 407.8134,377.2006 C406.9629,376.7446 405.624,376.7252 404.4597,377.6178" stroke="#FFFFFF" stroke-width="0.24" fill-opacity="0" />
  <path d="M384.5126,376.4148 C384.2021,367.5278 384.3767,363.3365 384.8833,360.8911 C385.3899,358.4457 386.2285,357.7462 386.5907,356.7113 C386.9529,355.6764 386.8387,354.3062 386.3419,353.0196 C385.845,351.733 384.9653,350.53 383.4906,349.618 C382.0159,348.706 379.9462,348.0851 378.5232,348.3438 C377.1003,348.6025 376.3241,349.7409 375.8972,351.235 C375.4703,352.7291 375.3927,354.5789 375.3216,356.1506 L375.134,360.5876 L374.8882,365.9108 C374.733,367.8124 374.4613,369.7657 374.5002,372.1006 C374.539,374.4355 374.8882,377.1521 374.539,378.1223" stroke="#FFFFFF" stroke-width="0.24" fill-opacity="0" />
  <path d="M405.9344,395.5858 C402.8298,392.2483 402.7134,390.9095 402.7457,389.645 L403.1209,385.9485 L403.5995,382.32 L404.1299,379.584 L404.4145,377.3138 C404.4597,376.4018 404.4597,375.1859 404.1558,373.8987 C403.8518,372.6116 403.2438,371.2533 402.7199,370.2249 C402.196,369.1965 401.7561,368.498 401.1934,367.8965 C400.6307,367.2949 399.9451,366.7904 398.6847,366.4785 C397.4242,366.1665 395.5889,366.0471 394.2145,367.4113" stroke="#FFFFFF" stroke-width="0.24" fill-opacity="0" />
</svg>